<mxfile host="app.diagrams.net" modified="2024-04-04T09:22:16.475Z" agent="Mozilla/5.0 (Windows NT 10.0; Win64; x64) AppleWebKit/537.36 (KHTML, like Gecko) Chrome/123.0.0.0 Safari/537.36" etag="-IuhI8_hQAdEdtwsWlH4" version="24.2.0" type="device">
  <diagram name="Page-1" id="nPp2AboYOKGWB0dni6Jb">
    <mxGraphModel dx="1050" dy="565" grid="0" gridSize="10" guides="1" tooltips="1" connect="1" arrows="1" fold="1" page="1" pageScale="1" pageWidth="850" pageHeight="1100" math="0" shadow="0">
      <root>
        <mxCell id="0" />
        <mxCell id="1" parent="0" />
        <mxCell id="iju8HWiI1ytHwIhYH4uy-1" value="Category" style="rounded=0;whiteSpace=wrap;html=1;fillColor=#f8cecc;strokeColor=#b85450;" vertex="1" parent="1">
          <mxGeometry x="348" y="250" width="121" height="60" as="geometry" />
        </mxCell>
        <mxCell id="iju8HWiI1ytHwIhYH4uy-3" value="Name" style="ellipse;whiteSpace=wrap;html=1;" vertex="1" parent="1">
          <mxGeometry x="465" y="162" width="120" height="80" as="geometry" />
        </mxCell>
        <mxCell id="iju8HWiI1ytHwIhYH4uy-4" value="Description" style="ellipse;whiteSpace=wrap;html=1;" vertex="1" parent="1">
          <mxGeometry x="226" y="310" width="120" height="80" as="geometry" />
        </mxCell>
        <mxCell id="iju8HWiI1ytHwIhYH4uy-5" value="RegDate" style="ellipse;whiteSpace=wrap;html=1;" vertex="1" parent="1">
          <mxGeometry x="478" y="310" width="120" height="80" as="geometry" />
        </mxCell>
        <mxCell id="iju8HWiI1ytHwIhYH4uy-6" value="" style="endArrow=classic;html=1;rounded=0;entryX=0.92;entryY=0.24;entryDx=0;entryDy=0;entryPerimeter=0;exitX=0.067;exitY=0.997;exitDx=0;exitDy=0;exitPerimeter=0;" edge="1" parent="1" source="iju8HWiI1ytHwIhYH4uy-1" target="iju8HWiI1ytHwIhYH4uy-4">
          <mxGeometry width="50" height="50" relative="1" as="geometry">
            <mxPoint x="399" y="319" as="sourcePoint" />
            <mxPoint x="416" y="288" as="targetPoint" />
          </mxGeometry>
        </mxCell>
        <mxCell id="iju8HWiI1ytHwIhYH4uy-7" value="" style="endArrow=classic;html=1;rounded=0;exitX=0.75;exitY=1;exitDx=0;exitDy=0;" edge="1" parent="1" source="iju8HWiI1ytHwIhYH4uy-1" target="iju8HWiI1ytHwIhYH4uy-5">
          <mxGeometry width="50" height="50" relative="1" as="geometry">
            <mxPoint x="450" y="376" as="sourcePoint" />
            <mxPoint x="500" y="326" as="targetPoint" />
          </mxGeometry>
        </mxCell>
        <mxCell id="iju8HWiI1ytHwIhYH4uy-8" value="" style="endArrow=classic;html=1;rounded=0;" edge="1" parent="1" source="iju8HWiI1ytHwIhYH4uy-1">
          <mxGeometry width="50" height="50" relative="1" as="geometry">
            <mxPoint x="399" y="319" as="sourcePoint" />
            <mxPoint x="332.0890068350948" y="226.14861168643472" as="targetPoint" />
          </mxGeometry>
        </mxCell>
        <mxCell id="iju8HWiI1ytHwIhYH4uy-9" value="" style="endArrow=classic;html=1;rounded=0;entryX=0.087;entryY=0.788;entryDx=0;entryDy=0;entryPerimeter=0;exitX=0.995;exitY=0.13;exitDx=0;exitDy=0;exitPerimeter=0;" edge="1" parent="1" source="iju8HWiI1ytHwIhYH4uy-1" target="iju8HWiI1ytHwIhYH4uy-3">
          <mxGeometry width="50" height="50" relative="1" as="geometry">
            <mxPoint x="464" y="254" as="sourcePoint" />
            <mxPoint x="485" y="222" as="targetPoint" />
          </mxGeometry>
        </mxCell>
      </root>
    </mxGraphModel>
  </diagram>
</mxfile>
